<svg width="49" height="48" viewBox="0 0 49 48" fill="none" xmlns="http://www.w3.org/2000/svg">
<rect x="0.5" width="48" height="48" rx="24" fill="#D1FADF"/>
<path d="M21.5 23.5001L23.5 25.5001L28 21.0001M32.5 24.0001C32.5 28.9086 27.146 32.4785 25.198 33.615C24.9766 33.7442 24.8659 33.8087 24.7097 33.8422C24.5884 33.8682 24.4116 33.8682 24.2903 33.8422C24.1341 33.8087 24.0234 33.7442 23.802 33.615C21.854 32.4785 16.5 28.9086 16.5 24.0001V19.2177C16.5 18.4182 16.5 18.0184 16.6308 17.6748C16.7463 17.3713 16.934 17.1004 17.1777 16.8856C17.4535 16.6426 17.8278 16.5022 18.5764 16.2215L23.9382 14.2108C24.1461 14.1328 24.25 14.0938 24.357 14.0784C24.4518 14.0647 24.5482 14.0647 24.643 14.0784C24.75 14.0938 24.8539 14.1328 25.0618 14.2108L30.4236 16.2215C31.1722 16.5022 31.5465 16.6426 31.8223 16.8856C32.066 17.1004 32.2537 17.3713 32.3692 17.6748C32.5 18.0184 32.5 18.4182 32.5 19.2177V24.0001Z" stroke="#05603A" stroke-width="2" stroke-linecap="round" stroke-linejoin="round"/>
</svg>
