<svg width="49" height="48" viewBox="0 0 49 48" fill="none" xmlns="http://www.w3.org/2000/svg">
<rect x="0.5" width="48" height="48" rx="24" fill="#D1FADF"/>
<path d="M34.6262 24.6649C34.8333 24.2459 34.8333 23.7543 34.6262 23.3353C34.4437 22.9663 34.1236 22.7729 33.9578 22.6795C33.7792 22.5791 33.5504 22.4761 33.3222 22.3735L16.5384 14.8209C16.305 14.7158 16.0723 14.611 15.876 14.543C15.6958 14.4806 15.3329 14.3665 14.9311 14.4783C14.4771 14.6046 14.1089 14.937 13.9368 15.3757C13.7845 15.7639 13.8609 16.1366 13.9046 16.3222C13.9522 16.5245 14.0326 16.7667 14.1133 17.0097L15.7378 21.904C15.8686 22.2981 15.934 22.4951 16.0556 22.6408C16.163 22.7695 16.301 22.8691 16.4569 22.9305C16.6335 23 16.8411 23 17.2563 23H24.5C25.0523 23 25.5 23.4477 25.5 24C25.5 24.5523 25.0523 25 24.5 25H17.2752C16.8611 25 16.654 25 16.4777 25.0692C16.3221 25.1304 16.1842 25.2296 16.0768 25.3578C15.9552 25.503 15.8895 25.6993 15.758 26.0921L14.1205 30.9836C14.0389 31.2272 13.9576 31.4697 13.9094 31.6722C13.8652 31.8578 13.7876 32.2311 13.9394 32.6203C14.1109 33.0599 14.4792 33.3931 14.9337 33.52C15.3361 33.6323 15.6998 33.5178 15.8801 33.4553C16.0768 33.3872 16.3101 33.2822 16.5443 33.1767L33.3222 25.6267C33.5504 25.524 33.7792 25.4211 33.9578 25.3206C34.1236 25.2273 34.4437 25.0338 34.6262 24.6649Z" fill="black"/>
</svg>
