<svg width="49" height="48" viewBox="0 0 49 48" fill="none" xmlns="http://www.w3.org/2000/svg">
<rect x="0.5" width="48" height="48" rx="24" fill="#D1FADF"/>
<path d="M18.5 20C18.5 16.6863 21.1863 14 24.5 14C27.4039 14 29.824 16.062 30.38 18.8011C30.4899 19.3423 30.1402 19.8701 29.5989 19.98C29.0577 20.0899 28.5298 19.7402 28.42 19.1989C28.0494 17.3736 26.434 16 24.5 16C22.2909 16 20.5 17.7909 20.5 20V22.0016C20.7377 22 20.9904 22 21.2587 22H27.7413C28.5463 22 29.2106 22 29.7518 22.0442C30.3139 22.0901 30.8306 22.1887 31.316 22.436C32.0686 22.8195 32.6805 23.4314 33.064 24.184C33.3113 24.6694 33.4099 25.1861 33.4558 25.7482C33.5 26.2894 33.5 26.9537 33.5 27.7587V28.2413C33.5 29.0463 33.5 29.7106 33.4558 30.2518C33.4099 30.8139 33.3113 31.3306 33.064 31.816C32.6805 32.5686 32.0686 33.1805 31.316 33.564C30.8306 33.8113 30.3139 33.9099 29.7518 33.9558C29.2106 34 28.5463 34 27.7413 34H21.2587C20.4537 34 19.7894 34 19.2482 33.9558C18.6861 33.9099 18.1694 33.8113 17.684 33.564C16.9314 33.1805 16.3195 32.5686 15.936 31.816C15.6887 31.3306 15.5901 30.8139 15.5442 30.2518C15.5 29.7106 15.5 29.0463 15.5 28.2413V27.7587C15.5 26.9537 15.5 26.2894 15.5442 25.7482C15.5901 25.1861 15.6887 24.6694 15.936 24.184C16.3195 23.4314 16.9314 22.8195 17.684 22.436C17.9461 22.3024 18.2174 22.2123 18.5 22.1503V20Z" fill="black"/>
</svg>
