<svg width="48" height="48" viewBox="0 0 48 48" fill="none" xmlns="http://www.w3.org/2000/svg">
<rect width="48" height="48" rx="24" fill="#FEF0C7"/>
<path fill-rule="evenodd" clip-rule="evenodd" d="M24.8126 13.6686C24.2953 13.4386 23.7047 13.4386 23.1874 13.6686C22.7878 13.8463 22.5283 14.1592 22.3477 14.4142C22.1701 14.6648 21.98 14.9933 21.771 15.3545L13.5038 29.6341C13.2939 29.9966 13.1031 30.326 12.9738 30.6056C12.8424 30.8897 12.6998 31.2717 12.7452 31.7076C12.804 32.2717 13.0996 32.7843 13.5583 33.1178C13.9128 33.3756 14.3148 33.4435 14.6265 33.4721C14.9333 33.5003 15.3139 33.5003 15.7328 33.5002H32.2671C32.686 33.5003 33.0667 33.5003 33.3734 33.4721C33.6852 33.4435 34.0872 33.3756 34.4417 33.1178C34.9004 32.7843 35.1959 32.2717 35.2547 31.7076C35.3002 31.2717 35.1576 30.8897 35.0261 30.6056C34.8968 30.3261 34.7061 29.9967 34.4962 29.6342L26.229 15.3544C26.0199 14.9933 25.8298 14.6648 25.6522 14.4142C25.4716 14.1592 25.2121 13.8463 24.8126 13.6686ZM25 21.0002C25 20.448 24.5523 20.0002 24 20.0002C23.4477 20.0002 23 20.448 23 21.0002V25.0002C23 25.5525 23.4477 26.0002 24 26.0002C24.5523 26.0002 25 25.5525 25 25.0002V21.0002ZM24 28.0002C23.4477 28.0002 23 28.448 23 29.0002C23 29.5525 23.4477 30.0002 24 30.0002H24.01C24.5623 30.0002 25.01 29.5525 25.01 29.0002C25.01 28.448 24.5623 28.0002 24.01 28.0002H24Z" fill="black"/>
</svg>
