<svg width="56" height="56" viewBox="0 0 56 56" fill="none" xmlns="http://www.w3.org/2000/svg">
<rect x="4" y="4" width="48" height="48" rx="24" fill="#BCE0FD"/>
<path d="M29.0001 18L20.0936 28.6879C19.7448 29.1064 19.5703 29.3157 19.5677 29.4925C19.5654 29.6461 19.6338 29.7923 19.7534 29.8889C19.8909 30 20.1633 30 20.7081 30H28.0001L27.0001 38L35.9067 27.3121C36.2555 26.8936 36.4299 26.6843 36.4325 26.5075C36.4348 26.3539 36.3664 26.2077 36.2468 26.1111C36.1094 26 35.8369 26 35.2921 26H28.0001L29.0001 18Z" stroke="#2699FB" stroke-width="2" stroke-linecap="round" stroke-linejoin="round"/>
<rect x="4" y="4" width="48" height="48" rx="24" stroke="#F1F9FF" stroke-width="8"/>
</svg>
