<svg width="24" height="24" viewBox="0 0 24 24" fill="none" xmlns="http://www.w3.org/2000/svg">
<rect width="24" height="24" rx="12" fill="#1F87F4"/>
<mask id="mask0_1076_14365" style="mask-type:alpha" maskUnits="userSpaceOnUse" x="6" y="5" width="13" height="13">
<path d="M6.36819 17.6962C6.27455 17.6553 6.1931 17.5987 6.12956 17.5304C6.06602 17.4622 6.02182 17.3841 6 17.301C6.00029 17.207 6.02821 17.1143 6.08148 17.0303C6.13476 16.9464 6.21194 16.8735 6.30692 16.8173C6.51361 16.7895 6.72581 16.8045 6.92298 16.861C7.11801 17.0007 7.28408 17.164 7.41511 17.3447C7.49068 17.4264 7.58657 17.495 7.69674 17.5462C7.80692 17.5975 7.92907 17.6303 8.0558 17.6426C8.18253 17.655 8.31116 17.6465 8.43369 17.618C8.55621 17.5895 8.67004 17.5415 8.76829 17.4768C9.2794 17.1323 9.64488 16.6714 9.81529 16.1567C10.1834 15.1025 10.5539 14.0908 10.8608 13.0366V12.8608L7.59883 12.5086L7.72286 11.8486L11.1072 12.2001L11.5382 10.8375L8.02978 10.4423L8.15371 9.73775L11.7823 10.0908C11.9048 9.82617 11.9675 9.60698 12.09 9.38618C12.3394 8.55855 12.8005 7.78041 13.4446 7.10015C13.7725 6.73962 14.209 6.45018 14.7143 6.25816C15.2196 6.06613 15.7774 5.97791 16.3369 6.00122C16.6075 5.99223 16.8776 6.02626 17.1312 6.10171C17.3848 6.17716 17.6168 6.29243 17.8132 6.44038C17.8745 6.48538 17.9985 6.57163 17.9985 6.65923C18.0154 6.75271 18.0076 6.84802 17.9757 6.93901C17.9439 7.03001 17.8885 7.11461 17.8132 7.18775C17.6876 7.24862 17.5394 7.27326 17.3936 7.25718C17.2478 7.2411 17.1134 7.18531 17.0135 7.09956C16.8283 6.96696 16.705 6.83635 16.5213 6.70435C16.4455 6.62142 16.348 6.55244 16.2355 6.5022C16.123 6.45196 15.9982 6.42151 15.8696 6.41314C15.7409 6.40476 15.6115 6.41855 15.4902 6.45357C15.3689 6.48858 15.2585 6.54415 15.1667 6.61616C14.8369 6.85272 14.5659 7.13624 14.3676 7.452C13.9367 8.376 13.6291 9.34182 13.1982 10.3096L16.5826 10.6612L16.3361 11.3212L13.0742 10.9691L12.706 12.3762L16.2129 12.7278L15.9665 13.3875L12.5208 13.0366C12.3305 13.6167 12.1034 14.1891 11.8405 14.751C11.5335 15.3666 11.2259 15.9804 10.8578 16.551C10.6147 16.9315 10.2576 17.2585 9.81788 17.5038C9.37815 17.749 8.8692 17.9047 8.33587 17.9573C8.13599 17.9837 7.93379 17.9971 7.73116 17.9974C7.24873 18.0099 6.77306 17.9048 6.36819 17.6962Z" fill="#F9FAFB"/>
</mask>
<g mask="url(#mask0_1076_14365)">
<rect x="4" y="3" width="16" height="18" fill="#FCFCFD"/>
</g>
</svg>
