<svg width="24" height="24" viewBox="0 0 24 24" fill="none" xmlns="http://www.w3.org/2000/svg">
<rect width="24" height="24" rx="12" fill="#1F87F4"/>
<mask id="mask0_37_2699" style="mask-type:alpha" maskUnits="userSpaceOnUse" x="6" y="5" width="13" height="13">
<path d="M6.36819 17.6962C6.27455 17.6553 6.1931 17.5986 6.12956 17.5304C6.06602 17.4621 6.02182 17.3841 6 17.301C6.00029 17.207 6.02821 17.1142 6.08148 17.0303C6.13476 16.9463 6.21194 16.8734 6.30692 16.8173C6.51361 16.7895 6.72581 16.8044 6.92298 16.861C7.11801 17.0006 7.28408 17.1639 7.41511 17.3446C7.49068 17.4263 7.58657 17.495 7.69674 17.5462C7.80692 17.5974 7.92907 17.6302 8.0558 17.6426C8.18253 17.655 8.31116 17.6465 8.43369 17.618C8.55621 17.5895 8.67004 17.5415 8.76829 17.4768C9.2794 17.1323 9.64488 16.6714 9.81529 16.1567C10.1834 15.1025 10.5539 14.0907 10.8608 13.0365V12.8608L7.59883 12.5086L7.72286 11.8486L11.1072 12.2001L11.5382 10.8375L8.02978 10.4423L8.15371 9.73771L11.7823 10.0907C11.9048 9.82614 11.9675 9.60695 12.09 9.38615C12.3394 8.55852 12.8005 7.78038 13.4446 7.10011C13.7725 6.73958 14.209 6.45015 14.7143 6.25812C15.2196 6.06609 15.7774 5.97788 16.3369 6.00119C16.6075 5.99219 16.8776 6.02623 17.1312 6.10168C17.3848 6.17712 17.6168 6.2924 17.8132 6.44035C17.8745 6.48535 17.9985 6.5716 17.9985 6.6592C18.0154 6.75268 18.0076 6.84799 17.9757 6.93898C17.9439 7.02997 17.8885 7.11458 17.8132 7.18771C17.6876 7.24859 17.5394 7.27322 17.3936 7.25715C17.2478 7.24107 17.1134 7.18528 17.0135 7.09953C16.8283 6.96693 16.705 6.83631 16.5213 6.70431C16.4455 6.62139 16.348 6.5524 16.2355 6.50216C16.123 6.45193 15.9982 6.42148 15.8696 6.4131C15.7409 6.40473 15.6115 6.41852 15.4902 6.45353C15.3689 6.48855 15.2585 6.54412 15.1667 6.61613C14.8369 6.85268 14.5659 7.13621 14.3676 7.45197C13.9367 8.37597 13.6291 9.34179 13.1982 10.3096L16.5826 10.6611L16.3361 11.3212L13.0742 10.9691L12.706 12.3762L16.2129 12.7278L15.9665 13.3875L12.5208 13.0365C12.3305 13.6166 12.1034 14.189 11.8405 14.751C11.5335 15.3666 11.2259 15.9804 10.8578 16.551C10.6147 16.9314 10.2576 17.2585 9.81788 17.5037C9.37815 17.749 8.8692 17.9047 8.33587 17.9572C8.13599 17.9836 7.93379 17.997 7.73116 17.9974C7.24873 18.0099 6.77306 17.9048 6.36819 17.6962Z" fill="#F9FAFB"/>
</mask>
<g mask="url(#mask0_37_2699)">
<rect x="4" y="3" width="16" height="18" fill="#FCFCFD"/>
</g>
</svg>
