<svg width="24" height="24" viewBox="0 0 24 24" fill="none" xmlns="http://www.w3.org/2000/svg">
<rect width="24" height="24" rx="12" fill="#1F87F4"/>
<mask id="mask0_48_9228" style="mask-type:alpha" maskUnits="userSpaceOnUse" x="6" y="6" width="12" height="12">
<path fill-rule="evenodd" clip-rule="evenodd" d="M6.00005 6.6C6.00005 6.26865 6.26871 6 6.60005 6H17.4001C17.7314 6 18.0001 6.26865 18.0001 6.6V9C18.0001 9.33135 17.7314 9.6 17.4001 9.6H6.60005C6.26871 9.6 6.00005 9.33135 6.00005 9V6.6ZM15.0001 7.8C15.0001 8.13135 14.7314 8.4 14.4001 8.4C14.0687 8.4 13.8001 8.13135 13.8001 7.8C13.8001 7.46865 14.0687 7.2 14.4001 7.2C14.7314 7.2 15.0001 7.46865 15.0001 7.8ZM16.2001 8.4C16.5314 8.4 16.8001 8.13135 16.8001 7.8C16.8001 7.46865 16.5314 7.2 16.2001 7.2C15.8687 7.2 15.6001 7.46865 15.6001 7.8C15.6001 8.13135 15.8687 8.4 16.2001 8.4Z" fill="#FCFCFC"/>
<path fill-rule="evenodd" clip-rule="evenodd" d="M6.00005 10.8C6.00005 10.4687 6.26871 10.2 6.60005 10.2H17.4001C17.7314 10.2 18.0001 10.4687 18.0001 10.8V13.2C18.0001 13.5313 17.7314 13.8 17.4001 13.8H6.60005C6.26871 13.8 6.00005 13.5313 6.00005 13.2V10.8ZM15.0001 12C15.0001 12.3313 14.7314 12.6 14.4001 12.6C14.0687 12.6 13.8001 12.3313 13.8001 12C13.8001 11.6687 14.0687 11.4 14.4001 11.4C14.7314 11.4 15.0001 11.6687 15.0001 12ZM16.2001 12.6C16.5314 12.6 16.8001 12.3313 16.8001 12C16.8001 11.6687 16.5314 11.4 16.2001 11.4C15.8687 11.4 15.6001 11.6687 15.6001 12C15.6001 12.3313 15.8687 12.6 16.2001 12.6Z" fill="#FCFCFC"/>
<path fill-rule="evenodd" clip-rule="evenodd" d="M6.60005 14.4C6.26871 14.4 6.00005 14.6687 6.00005 15V17.4C6.00005 17.7313 6.26871 18 6.60005 18H17.4001C17.7314 18 18.0001 17.7313 18.0001 17.4V15C18.0001 14.6687 17.7314 14.4 17.4001 14.4H6.60005ZM14.4001 16.8C14.7314 16.8 15.0001 16.5313 15.0001 16.2C15.0001 15.8687 14.7314 15.6 14.4001 15.6C14.0687 15.6 13.8001 15.8687 13.8001 16.2C13.8001 16.5313 14.0687 16.8 14.4001 16.8ZM16.8001 16.2C16.8001 16.5313 16.5314 16.8 16.2001 16.8C15.8687 16.8 15.6001 16.5313 15.6001 16.2C15.6001 15.8687 15.8687 15.6 16.2001 15.6C16.5314 15.6 16.8001 15.8687 16.8001 16.2Z" fill="#FCFCFC"/>
</mask>
<g mask="url(#mask0_48_9228)">
<rect x="4.2" y="3" width="16.2" height="18" fill="white"/>
</g>
</svg>
