<svg width="115" height="48" viewBox="0 0 115 48" fill="none" xmlns="http://www.w3.org/2000/svg">
<rect width="6.6654" height="6.66547" transform="matrix(0.866023 -0.500005 0 1 20.5366 16.3147)" fill="#2E90FA"/>
<rect width="6.6654" height="6.66547" transform="matrix(0.866023 -0.500005 0 1 27.3821 12.5315)" fill="#2E90FA"/>
<rect width="6.6654" height="6.66547" transform="matrix(0.866023 -0.500005 0 1 27.3821 20.1882)" fill="#F04438"/>
<rect width="6.6654" height="6.66547" transform="matrix(0.866023 -0.500005 0 1 34.2275 8.38818)" fill="#2E90FA"/>
<rect width="6.6654" height="6.6654" transform="matrix(-0.866023 -0.500005 0.866023 -0.500005 20.0039 15.5042)" fill="#2E90FA"/>
<rect width="6.6654" height="6.6654" transform="matrix(-0.866023 -0.500005 0.866023 -0.500005 13.1584 11.541)" fill="#2E90FA"/>
<rect width="6.6654" height="6.6654" transform="matrix(-0.866023 -0.500005 0.866023 -0.500005 6.31274 7.57764)" fill="#2E90FA"/>
<rect width="6.6654" height="6.6654" transform="matrix(-0.866023 -0.500005 0.866023 -0.500005 26.8494 11.541)" fill="#2E90FA"/>
<rect width="6.6654" height="6.6654" transform="matrix(-0.866023 -0.500005 0.866023 -0.500005 33.6948 7.57764)" fill="#2E90FA"/>
<rect width="6.6654" height="6.66547" transform="matrix(-0.866023 -0.500005 0 1 19.4634 16.3147)" fill="#2E90FA"/>
<rect width="6.6654" height="6.66547" transform="matrix(-0.866023 -0.500005 0 1 12.6179 12.3513)" fill="#2E90FA"/>
<rect width="6.6654" height="6.66547" transform="matrix(-0.866023 -0.500005 0 1 12.6179 20.0979)" fill="#2E90FA"/>
<rect width="6.6654" height="6.66547" transform="matrix(-0.866023 -0.500005 0 1 5.77246 8.38818)" fill="#2E90FA"/>
<rect width="6.6654" height="6.66547" transform="matrix(0.866023 -0.500005 0 1 20.5366 24.061)" fill="#2E90FA"/>
<rect width="6.6654" height="6.66547" transform="matrix(-0.866023 -0.500005 0 1 19.4634 24.061)" fill="#2E90FA"/>
<rect width="6.6654" height="6.66547" transform="matrix(0.866023 -0.500005 0 1 20.5366 31.8076)" fill="#2E90FA"/>
<rect width="6.6654" height="6.66547" transform="matrix(-0.866023 -0.500005 0 1 19.4634 31.8076)" fill="#2E90FA"/>
<path d="M3.90015 43.4729H4.80087V44.3736H3.90015V43.4729Z" fill="#2E90FA"/>
<path d="M3.90015 44.8301H4.80087V45.7308H3.90015V44.8301Z" fill="#2E90FA"/>
<path d="M5.11304 45.2804C5.11304 45.0317 5.31467 44.8301 5.5634 44.8301C5.81213 44.8301 6.01376 45.0317 6.01376 45.2804C6.01376 45.5292 5.81213 45.7308 5.5634 45.7308C5.31467 45.7308 5.11304 45.5292 5.11304 45.2804Z" fill="#2E90FA"/>
<path d="M5.11304 43.4727H6.01376V44.3734H5.11304V43.4727Z" fill="#2E90FA"/>
<path d="M3.90015 46.187H4.80087V47.0878H3.90015V46.187Z" fill="#2E90FA"/>
<path d="M12.0137 43.9233C12.0137 43.6745 12.2153 43.4729 12.464 43.4729C12.7128 43.4729 12.9144 43.6745 12.9144 43.9233C12.9144 44.172 12.7128 44.3736 12.464 44.3736C12.2153 44.3736 12.0137 44.172 12.0137 43.9233Z" fill="#2E90FA"/>
<path d="M12.0137 44.8301H12.9144V45.7308H12.0137V44.8301Z" fill="#2E90FA"/>
<path d="M12.0137 46.187H12.9144V47.0878H12.0137V46.187Z" fill="#2E90FA"/>
<path d="M18.9146 43.4729H19.8153V44.3736H18.9146V43.4729Z" fill="#2E90FA"/>
<path d="M18.9146 44.8301H19.8153V45.7308H18.9146V44.8301Z" fill="#2E90FA"/>
<path d="M18.9146 46.187H19.8153V47.0878H18.9146V46.187Z" fill="#2E90FA"/>
<path d="M20.1851 46.6374C20.1851 46.3887 20.3867 46.187 20.6354 46.187C20.8842 46.187 21.0858 46.3887 21.0858 46.6374C21.0858 46.8861 20.8842 47.0878 20.6354 47.0878C20.3867 47.0878 20.1851 46.8861 20.1851 46.6374Z" fill="#2E90FA"/>
<path d="M27.0857 43.4729H27.9864V44.3736H27.0857V43.4729Z" fill="#2E90FA"/>
<path d="M27.0857 44.8301H27.9864V45.7308H27.0857V44.8301Z" fill="#2E90FA"/>
<path d="M28.2986 45.2804C28.2986 45.0317 28.5002 44.8301 28.7489 44.8301C28.9977 44.8301 29.1993 45.0317 29.1993 45.2804C29.1993 45.5292 28.9977 45.7308 28.7489 45.7308C28.5002 45.7308 28.2986 45.5292 28.2986 45.2804Z" fill="#2E90FA"/>
<path d="M28.2986 43.4727H29.1993V44.3734H28.2986V43.4727Z" fill="#2E90FA"/>
<path d="M27.0857 46.187H27.9864V47.0878H27.0857V46.187Z" fill="#2E90FA"/>
<path d="M35.1992 43.9233C35.1992 43.6745 35.4009 43.4729 35.6496 43.4729C35.8983 43.4729 36.0999 43.6745 36.0999 43.9233C36.0999 44.172 35.8983 44.3736 35.6496 44.3736C35.4009 44.3736 35.1992 44.172 35.1992 43.9233Z" fill="#2E90FA"/>
<path d="M35.1992 44.8301H36.0999V45.7308H35.1992V44.8301Z" fill="#2E90FA"/>
<path d="M35.1992 46.187H36.0999V47.0878H35.1992V46.187Z" fill="#2E90FA"/>
<path d="M57.8133 35H53.0453V12.152H66.1333V16.12H57.8133V22.008H65.5573V25.976H57.8133V35ZM74.9918 17.528V35H70.2238V17.528H74.9918ZM72.6238 10.68C73.3278 10.68 73.9358 10.8507 74.4478 11.192C74.9598 11.512 75.2158 12.12 75.2158 13.016C75.2158 13.8907 74.9598 14.4987 74.4478 14.84C73.9358 15.1813 73.3278 15.352 72.6238 15.352C71.8985 15.352 71.2798 15.1813 70.7678 14.84C70.2771 14.4987 70.0318 13.8907 70.0318 13.016C70.0318 12.12 70.2771 11.512 70.7678 11.192C71.2798 10.8507 71.8985 10.68 72.6238 10.68ZM84.7418 35H79.9738V10.68H84.7418V35ZM94.8758 35H90.1078V12.152H103.196V16.12H94.8758V22.008H102.62V25.976H94.8758V35ZM112.054 17.528V35H107.286V17.528H112.054ZM109.686 10.68C110.39 10.68 110.998 10.8507 111.51 11.192C112.022 11.512 112.278 12.12 112.278 13.016C112.278 13.8907 112.022 14.4987 111.51 14.84C110.998 15.1813 110.39 15.352 109.686 15.352C108.961 15.352 108.342 15.1813 107.83 14.84C107.34 14.4987 107.094 13.8907 107.094 13.016C107.094 12.12 107.34 11.512 107.83 11.192C108.342 10.8507 108.961 10.68 109.686 10.68Z" fill="#363F72"/>
</svg>
