<svg width="122" height="122" viewBox="0 0 122 122" fill="none" xmlns="http://www.w3.org/2000/svg">
<path d="M32.3717 89.9556C31.8956 89.7475 31.4816 89.4596 31.1586 89.1127C30.8356 88.7658 30.6109 88.3689 30.5 87.9466C30.5015 87.4688 30.6434 86.9972 30.9142 86.5705C31.185 86.1438 31.5773 85.7732 32.0602 85.4878C33.1109 85.3465 34.1895 85.4224 35.1918 85.7097C36.1832 86.4198 37.0274 87.2499 37.6935 88.1685C38.0776 88.5837 38.565 88.9328 39.1251 89.1931C39.6852 89.4535 40.3061 89.6202 40.9503 89.6831C41.5945 89.7459 42.2484 89.7029 42.8712 89.558C43.4941 89.413 44.0727 89.1692 44.5721 88.8402C47.1703 87.089 49.0281 84.7461 49.8944 82.1296C51.7658 76.7707 53.649 71.6278 55.2092 66.269V65.3754L38.6274 63.5853L39.2579 60.23L56.4616 62.0171L58.6523 55.0906L40.818 53.0816L41.448 49.4999L59.8935 51.2945C60.516 49.9494 60.8349 48.8352 61.4574 47.7128C62.7252 43.5057 65.0691 39.5501 68.3436 36.0921C70.0103 34.2594 72.2293 32.7881 74.7978 31.812C77.3663 30.8359 80.2019 30.3874 83.0457 30.5059C84.4213 30.4602 85.7944 30.6332 87.0836 31.0167C88.3728 31.4003 89.5518 31.9862 90.5507 32.7383C90.8619 32.9671 91.4921 33.4055 91.4921 33.8508C91.5781 34.326 91.5388 34.8105 91.3767 35.273C91.2147 35.7356 90.9334 36.1657 90.5507 36.5374C89.912 36.8469 89.1584 36.9721 88.4173 36.8904C87.6761 36.8086 86.9933 36.5251 86.4851 36.0892C85.5436 35.4151 84.9172 34.7511 83.9834 34.0801C83.5981 33.6586 83.1026 33.3079 82.5307 33.0526C81.9588 32.7972 81.3243 32.6424 80.6703 32.5998C80.0163 32.5572 79.3585 32.6274 78.7419 32.8053C78.1252 32.9833 77.564 33.2658 77.0972 33.6319C75.4209 34.8344 74.0432 36.2756 73.0354 37.8807C70.845 42.5777 69.2811 47.4873 67.0907 52.407L84.2949 54.1941L83.042 57.5494L66.4607 55.7593L64.589 62.9122L82.4158 64.6993L81.1628 68.0531L63.6476 66.269C62.6798 69.2178 61.5255 72.1274 60.189 74.9841C58.6288 78.1134 57.0651 81.2336 55.1937 84.1341C53.9581 86.068 52.1428 87.7306 49.9075 88.9772C47.6722 90.2238 45.0851 91.0154 42.374 91.2825C41.358 91.4168 40.3301 91.4848 39.3001 91.4866C36.8477 91.5502 34.4297 91.016 32.3717 89.9556Z" fill="#1D354F"/>
</svg>
